<svg width="42" height="52" viewBox="0 0 42 52" fill="none" xmlns="http://www.w3.org/2000/svg">
<path d="M7.74536 33.9299L5.7929 35.4913L5.83006 35.5377L5.86938 35.5824L7.74536 33.9299ZM3.14209 21.1311L0.642085 21.1311L0.642094 21.1359L3.14209 21.1311ZM8.42233 8.38615L6.6658 6.60717L6.6567 6.61624L8.42233 8.38615ZM20.9865 3.13184L21.014 0.631987L20.9797 0.63161L20.9454 0.632175L20.9865 3.13184ZM33.5777 8.38615L35.3411 6.614L35.3342 6.60718L33.5777 8.38615ZM34.2276 33.9299L36.1422 35.5375L36.157 35.5198L36.1715 35.5019L34.2276 33.9299ZM14.7583 28.0019L16.6241 26.338C16.6012 26.3122 16.5777 26.287 16.5537 26.2622L14.7583 28.0019ZM13.6752 26.2235L11.3038 27.0149L11.3054 27.0196L13.6752 26.2235ZM13.4586 24.149L15.9423 24.434C15.948 24.3848 15.9521 24.3354 15.9548 24.2859L13.4586 24.149ZM15.2729 20.4845L13.6543 18.5792L13.6504 18.5825L15.2729 20.4845ZM19.0909 19.2989L18.8573 21.788C18.8834 21.7904 18.9095 21.7924 18.9357 21.7941L19.0909 19.2989ZM21.3925 20.0265L19.9913 22.0969C20.0524 22.1382 20.1152 22.1769 20.1797 22.2126L21.3925 20.0265ZM22.6922 21.0773L24.5787 19.4368L24.5762 19.434L22.6922 21.0773ZM26.5464 29.3193C27.4524 30.3612 29.0315 30.4713 30.0734 29.5653C31.1153 28.6593 31.2254 27.0802 30.3194 26.0383L26.5464 29.3193ZM19.1371 50.6446C20.0498 51.6807 21.6295 51.7807 22.6656 50.8681C23.7017 49.9554 23.8017 48.3757 22.8891 47.3396L19.1371 50.6446ZM25.8117 40.3963L27.6775 38.7324L25.8117 40.3963ZM7.74536 33.9299L9.69782 32.3685C6.97578 28.9647 5.64998 25.2423 5.64209 21.1263L3.14209 21.1311L0.642094 21.1359C0.652257 26.4327 2.3953 31.2427 5.7929 35.4913L7.74536 33.9299ZM3.14209 21.1311H5.64209C5.64209 16.8084 7.13931 13.1973 10.188 10.1561L8.42233 8.38615L6.6567 6.61624C2.66503 10.5983 0.64209 15.484 0.64209 21.1311H3.14209ZM8.42233 8.38615L10.1788 10.1651C13.1826 7.19922 16.7546 5.70183 21.0276 5.6315L20.9865 3.13184L20.9454 0.632175C15.3978 0.723483 10.5936 2.72897 6.66582 6.60719L8.42233 8.38615ZM20.9865 3.13184L20.959 5.63168C25.2109 5.67843 28.7884 7.17064 31.8212 10.1651L33.5777 8.38615L35.3342 6.60718C31.3808 2.70368 26.5641 0.693003 21.014 0.631987L20.9865 3.13184ZM33.5777 8.38615L31.8143 10.1583C34.86 13.189 36.358 16.7983 36.358 21.1311H38.858H41.358C41.358 15.4763 39.3358 10.589 35.3411 6.61402L33.5777 8.38615ZM38.858 21.1311H36.358C36.358 25.2492 35.0268 28.9658 32.2837 32.3579L34.2276 33.9299L36.1715 35.5019C39.6022 31.2596 41.358 26.4435 41.358 21.1311H38.858ZM34.2276 33.9299L32.313 32.3223L26.9214 38.7437L28.836 40.3512L30.7506 41.9588L36.1422 35.5375L34.2276 33.9299ZM14.7583 28.0019L16.5537 26.2622C16.3233 26.0244 16.1498 25.739 16.0451 25.4274L13.6752 26.2235L11.3054 27.0196C11.6479 28.0392 12.2143 28.969 12.9629 29.7415L14.7583 28.0019ZM13.6752 26.2235L16.0466 25.4321C15.9393 25.1104 15.9038 24.7698 15.9423 24.434L13.4586 24.149L10.9749 23.864C10.853 24.9262 10.9655 26.0014 11.3038 27.0149L13.6752 26.2235ZM13.4586 24.149L15.9548 24.2859C15.9988 23.4845 16.2804 22.9111 16.8954 22.3864L15.2729 20.4845L13.6504 18.5825C11.9906 19.9985 11.081 21.8494 10.9624 24.0121L13.4586 24.149ZM15.2729 20.4845L16.8915 22.3898C17.4677 21.9003 18.0658 21.7137 18.8573 21.788L19.0909 19.2989L19.3245 16.8098C17.2456 16.6147 15.2983 17.1825 13.6543 18.5792L15.2729 20.4845ZM19.0909 19.2989L18.9357 21.7941C19.4637 21.8269 19.7642 21.9433 19.9913 22.0969L21.3925 20.0265L22.7937 17.9561C21.667 17.1935 20.4511 16.8787 19.2461 16.8037L19.0909 19.2989ZM21.3925 20.0265L20.1797 22.2126C20.4177 22.3446 20.6303 22.5167 20.8082 22.7206L22.6922 21.0773L24.5762 19.434C24.0167 18.7925 23.3497 18.2533 22.6053 17.8404L21.3925 20.0265ZM22.6922 21.0773L20.8057 22.7178L26.5464 29.3193L28.4329 27.6788L30.3194 26.0383L24.5787 19.4368L22.6922 21.0773ZM21.0131 48.9921L22.8891 47.3396L9.62134 32.2774L7.74536 33.9299L5.86938 35.5824L19.1371 50.6446L21.0131 48.9921ZM25.8117 40.3963L27.6775 38.7324L16.6241 26.338L14.7583 28.0019L12.8925 29.6658L23.9458 42.0603L25.8117 40.3963ZM28.836 40.3512L26.9214 38.7437C27.1173 38.5103 27.4747 38.505 27.6775 38.7324L25.8117 40.3963L23.9458 42.0603C25.7712 44.107 28.9872 44.0591 30.7506 41.9588L28.836 40.3512Z" fill="#35B8BE"/>
</svg>
